<?xml version="1.0" encoding="UTF-8" standalone="no"?>
<!-- Created with Inkscape (http://www.inkscape.org/) -->

<svg
   xmlns:dc="http://purl.org/dc/elements/1.1/"
   xmlns:cc="http://creativecommons.org/ns#"
   xmlns:rdf="http://www.w3.org/1999/02/22-rdf-syntax-ns#"
   xmlns:svg="http://www.w3.org/2000/svg"
   xmlns="http://www.w3.org/2000/svg"
   xmlns:sodipodi="http://sodipodi.sourceforge.net/DTD/sodipodi-0.dtd"
   xmlns:inkscape="http://www.inkscape.org/namespaces/inkscape"
   width="7.5999999in"
   height="5.0590801in"
   viewBox="0 0 193.04 128.50063"
   version="1.1"
   id="svg56125"
   inkscape:version="0.92.1 r15371"
   sodipodi:docname="AudioInterface32.svg">
  <defs
     id="defs56119" />
  <sodipodi:namedview
     id="base"
     pagecolor="#ffffff"
     bordercolor="#666666"
     borderopacity="1.0"
     inkscape:pageopacity="0.0"
     inkscape:pageshadow="2"
     inkscape:zoom="1"
     inkscape:cx="217.51034"
     inkscape:cy="163.49672"
     inkscape:document-units="mm"
     inkscape:current-layer="layer1"
     showgrid="false"
     fit-margin-top="0"
     fit-margin-left="0"
     fit-margin-right="0"
     fit-margin-bottom="0"
     inkscape:window-width="1920"
     inkscape:window-height="1135"
     inkscape:window-x="0"
     inkscape:window-y="0"
     inkscape:window-maximized="1"
     units="in" />
  <metadata
     id="metadata56122">
    <rdf:RDF>
      <cc:Work
         rdf:about="">
        <dc:format>image/svg+xml</dc:format>
        <dc:type
           rdf:resource="http://purl.org/dc/dcmitype/StillImage" />
        <dc:title />
      </cc:Work>
    </rdf:RDF>
  </metadata>
  <g
     inkscape:label="Layer 1"
     inkscape:groupmode="layer"
     id="layer1"
     transform="translate(36.165036,-84.583033)">
    <text
       xml:space="preserve"
       style="color:#000000;font-style:normal;font-variant:normal;font-weight:normal;font-stretch:normal;font-size:2.82222223px;line-height:125%;font-family:Sans;-inkscape-font-specification:'Sans, Normal';font-variant-ligatures:normal;font-variant-caps:normal;font-variant-numeric:normal;font-feature-settings:normal;text-indent:0;text-align:start;text-decoration:none;text-decoration-line:none;letter-spacing:0px;word-spacing:0px;text-transform:none;writing-mode:lr-tb;direction:ltr;baseline-shift:baseline;text-anchor:start;display:inline;overflow:visible;visibility:visible;fill:#000000;fill-opacity:1;fill-rule:nonzero;stroke:none;stroke-width:0.26458332px;stroke-linecap:butt;stroke-linejoin:miter;stroke-opacity:1;marker:none;enable-background:accumulate"
       x="-30.926554"
       y="151.90567"
       id="text4858"><tspan
         sodipodi:role="line"
         id="tspan4856"
         x="-30.926554"
         y="151.90567"
         style="stroke-width:0.26458332px;font-size:2.11666667px">17</tspan></text>
    <path
       inkscape:connector-curvature="0"
       id="path37755"
       d="M -36.071332,84.676702 H 156.74611 V 212.98997 H -36.071332 Z m 0,0"
       style="fill:#e6e6e6;fill-opacity:1;fill-rule:nonzero;stroke:none;stroke-width:0.35277775" />
    <path
       inkscape:connector-curvature="0"
       style="fill:#000000;fill-opacity:1;stroke:none;stroke-width:0.35277775"
       d="m 47.4595,168.19108 c 0,0.0992 0.07717,0.17639 0.176388,0.17639 0.0937,0 0.170875,-0.0772 0.170875,-0.17639 v -0.64492 h 0.854385 c 0.0882,0 0.154342,-0.0717 0.154342,-0.15985 0,-0.0827 -0.06615,-0.15434 -0.154342,-0.15434 h -0.854385 v -0.54019 h 0.981163 c 0.0882,0 0.154342,-0.0717 0.154342,-0.15986 0,-0.0882 -0.06615,-0.15434 -0.154342,-0.15434 h -1.152038 c -0.09922,0 -0.176388,0.0717 -0.176388,0.17088 z m 0,0"
       id="path53845" />
    <path
       inkscape:connector-curvature="0"
       style="fill:#000000;fill-opacity:1;stroke:none;stroke-width:0.35277775"
       d="m 49.348692,168.19108 c 0,0.0992 0.07717,0.17639 0.176389,0.17639 0.09371,0 0.170879,-0.0772 0.170879,-0.17639 v -0.52917 h 0.435456 l 0.47956,0.61186 c 0.0441,0.0551 0.0937,0.0937 0.170876,0.0937 0.08819,0 0.165365,-0.0661 0.165365,-0.16537 0,-0.0496 -0.02204,-0.0882 -0.05512,-0.13229 l -0.374828,-0.47404 c 0.264583,-0.0827 0.446484,-0.27561 0.446484,-0.5898 v -0.005 c 0,-0.17088 -0.06063,-0.3197 -0.165364,-0.42995 -0.126781,-0.12126 -0.319704,-0.19292 -0.567754,-0.19292 h -0.705554 c -0.09922,0 -0.176389,0.0717 -0.176389,0.17087 z m 0.347268,-0.83785 v -0.66145 h 0.507116 c 0.253561,0 0.4079,0.11575 0.4079,0.32522 v 0.006 c 0,0.20395 -0.159853,0.33073 -0.4079,0.33073 z m 0,0"
       id="path53841" />
    <path
       inkscape:connector-curvature="0"
       style="fill:#000000;fill-opacity:1;stroke:none;stroke-width:0.35277775"
       d="m 52.374636,168.38401 c 0.606338,0 1.036285,-0.46302 1.036285,-1.01975 v -0.005 c 0,-0.55673 -0.424434,-1.01975 -1.030771,-1.01975 -0.606338,0 -1.036286,0.46853 -1.036286,1.02526 v 0.006 c 0,0.55673 0.424434,1.01424 1.030772,1.01424 z m 0.0055,-0.31971 c -0.391364,0 -0.672483,-0.3197 -0.672483,-0.70004 v -0.005 c 0,-0.38585 0.275608,-0.70005 0.666969,-0.70005 0.391364,0 0.672484,0.31971 0.672484,0.70556 v 0.006 c 0,0.38034 -0.275609,0.69453 -0.66697,0.69453 z m 0,0"
       id="path53833" />
    <path
       inkscape:connector-curvature="0"
       style="fill:#000000;fill-opacity:1;stroke:none;stroke-width:0.35277775"
       d="m 53.898686,168.1966 c 0,0.0937 0.07165,0.17087 0.170873,0.17087 0.09371,0 0.170879,-0.0772 0.170879,-0.17087 v -1.18512 l 0.479557,0.72209 c 0.03859,0.0551 0.08268,0.0882 0.143314,0.0882 0.06615,0 0.110244,-0.0331 0.148831,-0.0882 l 0.479555,-0.7276 v 1.18511 c 0,0.0937 0.08268,0.17639 0.17639,0.17639 0.09922,0 0.170878,-0.0772 0.170878,-0.17639 v -1.65364 c 0,-0.0937 -0.07166,-0.17088 -0.170878,-0.17088 h -0.03858 c -0.07166,0 -0.121266,0.0276 -0.159853,0.0882 l -0.600824,0.93706 -0.595312,-0.93706 c -0.03305,-0.0496 -0.08819,-0.0882 -0.165365,-0.0882 h -0.03305 c -0.09922,0 -0.17639,0.0772 -0.17639,0.17088 z m 0,0"
       id="path53837" />
    <path
       inkscape:connector-curvature="0"
       style="fill:#000000;fill-opacity:1;stroke:none;stroke-width:0.35277775"
       d="m 57.195315,168.17455 c 0,0.0992 0.07717,0.17638 0.17639,0.17638 h 0.562239 c 0.617361,0 1.047309,-0.42994 1.047309,-0.98667 v -0.005 c 0,-0.55673 -0.429948,-0.98116 -1.047309,-0.98116 h -0.562239 c -0.09922,0 -0.17639,0.0717 -0.17639,0.17087 z m 0.347266,-0.13781 v -1.34496 h 0.391363 c 0.413409,0 0.683507,0.28663 0.683507,0.67248 v 0.006 c 0,0.38585 -0.270098,0.66697 -0.683507,0.66697 z m 0,0"
       id="path53829" />
    <path
       inkscape:connector-curvature="0"
       style="fill:#000000;fill-opacity:1;stroke:none;stroke-width:0.35277775"
       d="m 59.639925,168.35093 h 1.163063 c 0.08268,0 0.15434,-0.0661 0.15434,-0.15433 0,-0.0882 -0.07166,-0.15434 -0.15434,-0.15434 h -0.992187 v -0.53468 h 0.84887 c 0.08819,0 0.15434,-0.0662 0.15434,-0.14883 0,-0.0882 -0.06615,-0.15986 -0.15434,-0.15986 h -0.84887 v -0.51262 h 0.975651 c 0.0882,0 0.154342,-0.0661 0.154342,-0.15435 0,-0.0882 -0.06615,-0.15434 -0.154342,-0.15434 h -1.146527 c -0.09922,0 -0.17639,0.0717 -0.17639,0.17088 v 1.62609 c 0,0.0992 0.07717,0.17638 0.17639,0.17638 z m 0,0"
       id="path53821" />
    <path
       inkscape:connector-curvature="0"
       style="fill:#000000;fill-opacity:1;stroke:none;stroke-width:0.35277775"
       d="m 62.207696,168.37849 h 0.01654 c 0.09922,0 0.165365,-0.0551 0.203951,-0.1378 l 0.694532,-1.63711 c 0.0055,-0.022 0.01654,-0.0496 0.01654,-0.0772 0,-0.0937 -0.07717,-0.16536 -0.170873,-0.16536 -0.08269,0 -0.148831,0.0551 -0.170879,0.11575 l -0.578773,1.43317 -0.567753,-1.42214 c -0.02755,-0.0772 -0.0882,-0.12678 -0.17639,-0.12678 -0.09922,0 -0.17639,0.0772 -0.17639,0.17088 0,0.0275 0.01101,0.0551 0.02204,0.0827 l 0.68902,1.62608 c 0.03858,0.0827 0.09922,0.1378 0.198437,0.1378 z m 0,0"
       id="path53817" />
    <path
       inkscape:connector-curvature="0"
       style="fill:#000000;fill-opacity:1;stroke:none;stroke-width:0.35277775"
       d="m 63.55551,168.19108 c 0,0.0992 0.07166,0.17639 0.170878,0.17639 0.09922,0 0.17639,-0.0772 0.17639,-0.17639 v -1.65916 c 0,-0.0937 -0.07717,-0.17087 -0.17639,-0.17087 -0.09922,0 -0.170878,0.0772 -0.170878,0.17087 z m 0,0"
       id="path53813" />
    <path
       inkscape:connector-curvature="0"
       style="fill:#000000;fill-opacity:1;stroke:none;stroke-width:0.35277775"
       d="m 65.395052,168.38401 c 0.319706,0 0.53468,-0.0992 0.722095,-0.26459 0.02755,-0.0275 0.05512,-0.0717 0.05512,-0.12678 0,-0.0827 -0.07717,-0.15985 -0.165365,-0.15985 -0.0441,0 -0.07717,0.0165 -0.104732,0.0386 -0.143317,0.12127 -0.286632,0.19293 -0.49058,0.19293 -0.380341,0 -0.655947,-0.3142 -0.655947,-0.70005 v -0.005 c 0,-0.38585 0.275606,-0.70004 0.655947,-0.70004 0.187412,0 0.330729,0.0717 0.468532,0.1819 0.02204,0.0165 0.05512,0.0331 0.104732,0.0331 0.0937,0 0.170874,-0.0772 0.170874,-0.17088 0,-0.0606 -0.02755,-0.11024 -0.06615,-0.1378 -0.170873,-0.13229 -0.374825,-0.226 -0.677992,-0.226 -0.600827,0 -1.019749,0.46302 -1.019749,1.02526 v 0.006 c 0,0.56775 0.429947,1.01424 1.00321,1.01424 z m 0,0"
       id="path53805" />
    <path
       inkscape:connector-curvature="0"
       style="fill:#000000;fill-opacity:1;stroke:none;stroke-width:0.35277775"
       d="m 66.806961,168.35093 h 1.163063 c 0.08268,0 0.15434,-0.0661 0.15434,-0.15433 0,-0.0882 -0.07166,-0.15434 -0.15434,-0.15434 h -0.992187 v -0.53468 h 0.84887 c 0.08819,0 0.15434,-0.0662 0.15434,-0.14883 0,-0.0882 -0.06615,-0.15986 -0.15434,-0.15986 h -0.84887 v -0.51262 h 0.975651 c 0.0882,0 0.154342,-0.0661 0.154342,-0.15435 0,-0.0882 -0.06615,-0.15434 -0.154342,-0.15434 h -1.146527 c -0.09922,0 -0.17639,0.0717 -0.17639,0.17088 v 1.62609 c 0,0.0992 0.07717,0.17638 0.17639,0.17638 z m 0,0"
       id="path53809" />
    <path
       inkscape:connector-curvature="0"
       style="fill:#000000;fill-opacity:1;stroke:none;stroke-width:0.35277775"
       d="m 51.691307,134.0653 c 0,0.0992 0.07717,0.17639 0.176387,0.17639 0.09371,0 0.17639,-0.0772 0.17639,-0.17639 v -1.49379 h 0.479559 c 0.08819,0 0.159851,-0.0717 0.159851,-0.15986 0,-0.0882 -0.07166,-0.15985 -0.159851,-0.15985 h -1.311894 c -0.08819,0 -0.159853,0.0717 -0.159853,0.15985 0,0.0882 0.07166,0.15986 0.159853,0.15986 h 0.479558 z m 0,0"
       id="path53801" />
    <path
       inkscape:connector-curvature="0"
       style="fill:#000000;fill-opacity:1;stroke:none;stroke-width:0.35277775"
       d="m 53.931052,134.25823 c 0.606338,0 1.036286,-0.46302 1.036286,-1.01975 v -0.005 c 0,-0.55673 -0.424437,-1.01975 -1.030775,-1.01975 -0.606337,0 -1.036285,0.46853 -1.036285,1.02526 v 0.006 c 0,0.55672 0.424439,1.01423 1.030774,1.01423 z m 0.0055,-0.31971 c -0.391362,0 -0.672481,-0.3197 -0.672481,-0.70004 v -0.005 c 0,-0.38585 0.275606,-0.70005 0.666972,-0.70005 0.391361,0 0.672481,0.31971 0.672481,0.70556 v 0.006 c 0,0.38033 -0.275606,0.69453 -0.666972,0.69453 z m 0,0"
       id="path53797" />
    <path
       inkscape:connector-curvature="0"
       style="fill:#000000;fill-opacity:1;stroke:none;stroke-width:0.35277775"
       d="m 56.234033,134.04877 c 0,0.0992 0.07717,0.17638 0.176387,0.17638 h 0.56224 c 0.617363,0 1.047311,-0.42994 1.047311,-0.98667 v -0.005 c 0,-0.55673 -0.429948,-0.98117 -1.047311,-0.98117 h -0.56224 c -0.09922,0 -0.176387,0.0717 -0.176387,0.17088 z m 0.347263,-0.13781 V 132.566 h 0.391364 c 0.413411,0 0.683509,0.28663 0.683509,0.67248 v 0.006 c 0,0.38585 -0.270098,0.66697 -0.683509,0.66697 z m 0,0"
       id="path53793" />
    <path
       inkscape:connector-curvature="0"
       style="fill:#000000;fill-opacity:1;stroke:none;stroke-width:0.35277775"
       d="m 58.678638,134.22515 h 1.163063 c 0.08268,0 0.154339,-0.0661 0.154339,-0.15434 0,-0.0882 -0.07166,-0.15434 -0.154339,-0.15434 h -0.992188 v -0.53468 h 0.848871 c 0.08819,0 0.15434,-0.0661 0.15434,-0.14882 0,-0.0882 -0.06615,-0.15986 -0.15434,-0.15986 h -0.848871 v -0.51263 h 0.975652 c 0.0882,0 0.154342,-0.0661 0.154342,-0.15434 0,-0.0882 -0.06615,-0.15434 -0.154342,-0.15434 h -1.146527 c -0.09922,0 -0.17639,0.0717 -0.17639,0.17088 v 1.62609 c 0,0.0992 0.07717,0.17639 0.17639,0.17638 z m 0,0"
       id="path53785" />
    <path
       inkscape:connector-curvature="0"
       style="fill:#000000;fill-opacity:1;stroke:none;stroke-width:0.35277775"
       d="m 61.246398,134.25271 h 0.01654 c 0.09922,0 0.165365,-0.0551 0.203952,-0.1378 l 0.694531,-1.63711 c 0.0055,-0.022 0.01654,-0.0496 0.01654,-0.0772 0,-0.0937 -0.07717,-0.16536 -0.170876,-0.16536 -0.08268,0 -0.14883,0.0551 -0.170878,0.11575 l -0.578773,1.43316 -0.567754,-1.42213 c -0.02755,-0.0772 -0.0882,-0.12678 -0.17639,-0.12678 -0.09922,0 -0.176389,0.0772 -0.176389,0.17087 0,0.0275 0.01101,0.0551 0.02204,0.0827 l 0.68902,1.62609 c 0.03858,0.0827 0.09922,0.1378 0.198438,0.1378 z m 0,0"
       id="path53781" />
    <path
       inkscape:connector-curvature="0"
       style="fill:#000000;fill-opacity:1;stroke:none;stroke-width:0.35277775"
       d="m 62.593656,134.0653 c 0,0.0992 0.07166,0.17639 0.170876,0.17639 0.09922,0 0.176387,-0.0772 0.176387,-0.17639 v -1.65916 c 0,-0.0937 -0.07717,-0.17087 -0.176387,-0.17087 -0.09922,0 -0.170876,0.0772 -0.170876,0.17087 z m 0,0"
       id="path53777" />
    <path
       inkscape:connector-curvature="0"
       style="fill:#000000;fill-opacity:1;stroke:none;stroke-width:0.35277775"
       d="m 64.43377,134.25823 c 0.319704,0 0.534675,-0.0992 0.72209,-0.26459 0.02755,-0.0276 0.05512,-0.0717 0.05512,-0.12678 0,-0.0827 -0.07717,-0.15985 -0.165365,-0.15985 -0.0441,0 -0.07717,0.0165 -0.10473,0.0386 -0.143314,0.12127 -0.286631,0.19293 -0.490583,0.19293 -0.380335,0 -0.655944,-0.3142 -0.655944,-0.70005 v -0.005 c 0,-0.38585 0.275609,-0.70004 0.655944,-0.70004 0.187413,0 0.33073,0.0717 0.468535,0.1819 0.02204,0.0165 0.05512,0.0331 0.10473,0.0331 0.09371,0 0.170879,-0.0772 0.170879,-0.17088 0,-0.0606 -0.02755,-0.11024 -0.06615,-0.1378 -0.170879,-0.13229 -0.374827,-0.226 -0.677998,-0.226 -0.600823,0 -1.019746,0.46302 -1.019746,1.02526 v 0.006 c 0,0.56775 0.429948,1.01424 1.003213,1.01424 z m 0,0"
       id="path53773" />
    <path
       inkscape:connector-curvature="0"
       style="fill:#000000;fill-opacity:1;stroke:none;stroke-width:0.35277775"
       d="m 65.845105,134.22515 h 1.163063 c 0.08268,0 0.15434,-0.0661 0.15434,-0.15434 0,-0.0882 -0.07165,-0.15434 -0.15434,-0.15434 h -0.992187 v -0.53468 h 0.84887 c 0.0882,0 0.154342,-0.0661 0.154342,-0.14882 0,-0.0882 -0.06615,-0.15986 -0.154342,-0.15986 h -0.84887 v -0.51263 h 0.975653 c 0.08819,0 0.15434,-0.0661 0.15434,-0.15434 0,-0.0882 -0.06615,-0.15434 -0.15434,-0.15434 h -1.146529 c -0.09922,0 -0.176387,0.0717 -0.176387,0.17088 v 1.62609 c 0,0.0992 0.07717,0.17639 0.176387,0.17638 z m 0,0"
       id="path53769" />
    <path
       inkscape:connector-curvature="0"
       id="path40531"
       d="M 41.096052,158.83445 H 52.694999"
       style="fill:none;stroke:#000000;stroke-width:0.35277775;stroke-linecap:butt;stroke-linejoin:miter;stroke-miterlimit:10;stroke-opacity:1" />
    <path
       inkscape:connector-curvature="0"
       id="path40533"
       d="M 17.895401,158.83445 H 29.495726"
       style="fill:none;stroke:#000000;stroke-width:0.35277775;stroke-linecap:butt;stroke-linejoin:miter;stroke-miterlimit:10;stroke-opacity:1" />
    <path
       inkscape:connector-curvature="0"
       id="path40535"
       d="M 41.096052,144.22035 H 52.694999"
       style="fill:none;stroke:#000000;stroke-width:0.35277775;stroke-linecap:butt;stroke-linejoin:miter;stroke-miterlimit:10;stroke-opacity:1" />
    <path
       inkscape:connector-curvature="0"
       id="path40537"
       d="M 17.895401,144.22035 H 29.495726"
       style="fill:none;stroke:#000000;stroke-width:0.35277775;stroke-linecap:butt;stroke-linejoin:miter;stroke-miterlimit:10;stroke-opacity:1" />
    <path
       inkscape:connector-curvature="0"
       style="fill:#000000;fill-opacity:1;stroke:none;stroke-width:0.35277775"
       d="m 29.515157,138.10868 c 0.336241,0 0.595313,-0.226 0.595313,-0.54571 v -0.006 c 0,-0.3197 -0.24805,-0.5016 -0.556729,-0.5016 -0.192923,0 -0.303167,0.0772 -0.385852,0.15985 0.01101,-0.29214 0.148831,-0.51263 0.385852,-0.51263 0.104733,0 0.187413,0.0331 0.275606,0.0937 0.02204,0.011 0.0441,0.0165 0.07166,0.0165 0.07166,0 0.132292,-0.0551 0.132292,-0.12678 0,-0.0606 -0.02755,-0.0937 -0.07166,-0.12127 -0.104728,-0.0717 -0.237019,-0.11575 -0.396875,-0.11575 -0.457507,0 -0.689017,0.38034 -0.689017,0.87092 v 0.006 c 0,0.32521 0.07166,0.49058 0.192923,0.61184 0.110244,0.11025 0.24805,0.17088 0.446487,0.17088 z m -0.0055,-0.24805 c -0.198438,0 -0.330729,-0.12127 -0.330729,-0.28663 0,-0.15434 0.12678,-0.28663 0.325218,-0.28663 0.198437,0 0.325215,0.12127 0.325215,0.28112 v 0.006 c 0,0.16536 -0.121267,0.28663 -0.319704,0.28663 z m 0,0"
       id="path53487" />
    <path
       inkscape:connector-curvature="0"
       style="fill:#000000;fill-opacity:1;stroke:none;stroke-width:0.35277775"
       d="m 40.710951,137.96536 c 0,0.0827 0.06615,0.12678 0.143316,0.12678 0.06064,0 0.104733,-0.0275 0.137806,-0.0937 l 0.661458,-1.26228 c 0.02755,-0.0441 0.03858,-0.0937 0.03858,-0.13229 0,-0.0827 -0.04961,-0.12678 -0.126778,-0.12678 H 40.66685 c -0.07166,0 -0.126778,0.0551 -0.126778,0.12127 0,0.0716 0.05512,0.12677 0.126778,0.12677 h 0.694531 l -0.622871,1.15205 c -0.01654,0.0275 -0.02755,0.0661 -0.02755,0.0882 z m 0,0"
       id="path53475" />
    <path
       inkscape:connector-curvature="0"
       style="fill:#000000;fill-opacity:1;stroke:none;stroke-width:0.35277775"
       d="m 52.694202,138.10317 c 0.352777,0 0.611847,-0.17639 0.611847,-0.46302 v -0.006 c 0,-0.19293 -0.110244,-0.30317 -0.286631,-0.38585 0.132291,-0.0717 0.23151,-0.17639 0.23151,-0.3583 v -0.006 c 0,-0.24804 -0.237022,-0.42995 -0.556726,-0.42995 -0.319706,0 -0.556731,0.18742 -0.556731,0.42995 v 0.006 c 0,0.18191 0.09922,0.28664 0.231511,0.3583 -0.176387,0.0772 -0.286631,0.19843 -0.286631,0.39135 v 0.005 c 0,0.27561 0.259072,0.45751 0.611851,0.45751 z m 0,-0.94809 c -0.165364,0 -0.286633,-0.0992 -0.286633,-0.23702 v -0.005 c 0,-0.12127 0.115755,-0.226 0.286633,-0.226 0.170873,0 0.286631,0.10473 0.286631,0.226 v 0.005 c 0,0.1378 -0.121266,0.23702 -0.286631,0.23702 z m 0,0.71107 c -0.209462,0 -0.336243,-0.11025 -0.336243,-0.23703 v -0.006 c 0,-0.14883 0.148828,-0.24253 0.336243,-0.24253 0.192924,0 0.336238,0.0937 0.336238,0.24253 v 0.006 c 0,0.13229 -0.126778,0.23703 -0.336238,0.23703 z m 0,0"
       id="path53463" />
    <path
       inkscape:connector-curvature="0"
       style="fill:#000000;fill-opacity:1;stroke:none;stroke-width:0.35277775"
       d="m 17.885129,138.10868 c 0.347263,0 0.589799,-0.22049 0.589799,-0.54571 0,-0.34175 -0.248047,-0.50711 -0.56224,-0.50711 -0.10473,0 -0.176389,0.0165 -0.25356,0.0441 l 0.02755,-0.37483 H 18.2875 c 0.06614,0 0.126783,-0.0551 0.126783,-0.12127 0,-0.0717 -0.06064,-0.12677 -0.126783,-0.12677 h -0.727605 c -0.06614,0 -0.121266,0.0496 -0.126777,0.12677 l -0.03305,0.57878 c -0.0055,0.0496 0.01101,0.0937 0.05512,0.12127 0.04961,0.0386 0.0882,0.0551 0.132292,0.0551 0.0441,0 0.115755,-0.0551 0.275608,-0.0551 0.192924,0 0.330729,0.0992 0.330729,0.26458 v 0.006 c 0,0.17088 -0.132291,0.27561 -0.314195,0.27561 -0.126778,0 -0.237019,-0.0441 -0.347263,-0.13229 -0.02204,-0.0165 -0.04961,-0.0275 -0.08269,-0.0275 -0.07165,0 -0.132292,0.0606 -0.132292,0.13229 0,0.0496 0.02204,0.0827 0.05512,0.11024 0.132291,0.10473 0.297656,0.17639 0.51263,0.17639 z m 0,0"
       id="path53459" />
    <path
       inkscape:connector-curvature="0"
       id="path40579"
       d="M -5.3038719,158.83445 H 6.2950751"
       style="fill:none;stroke:#000000;stroke-width:0.35277775;stroke-linecap:butt;stroke-linejoin:miter;stroke-miterlimit:10;stroke-opacity:1" />
    <path
       inkscape:connector-curvature="0"
       id="path40581"
       d="m -28.504523,158.83445 h 11.600324"
       style="fill:none;stroke:#000000;stroke-width:0.35277775;stroke-linecap:butt;stroke-linejoin:miter;stroke-miterlimit:10;stroke-opacity:1" />
    <path
       inkscape:connector-curvature="0"
       id="path40583"
       d="M -5.3038719,144.22035 H 6.2950751"
       style="fill:none;stroke:#000000;stroke-width:0.35277775;stroke-linecap:butt;stroke-linejoin:miter;stroke-miterlimit:10;stroke-opacity:1" />
    <path
       inkscape:connector-curvature="0"
       id="path40585"
       d="m -28.504523,144.22035 h 11.600324"
       style="fill:none;stroke:#000000;stroke-width:0.35277775;stroke-linecap:butt;stroke-linejoin:miter;stroke-miterlimit:10;stroke-opacity:1" />
    <path
       inkscape:connector-curvature="0"
       style="fill:#000000;fill-opacity:1;stroke:none;stroke-width:0.35277775"
       d="m -17.508655,137.94882 c 0,0.0827 0.06615,0.1323 0.148826,0.1323 h 0.909507 c 0.07166,0 0.126778,-0.0551 0.126778,-0.12127 0,-0.0717 -0.05512,-0.12678 -0.126778,-0.12678 h -0.650434 l 0.330729,-0.27561 c 0.286632,-0.2315 0.418924,-0.36931 0.418924,-0.62287 0,-0.28663 -0.214976,-0.47956 -0.529167,-0.47956 -0.253559,0 -0.402389,0.0937 -0.53468,0.25907 -0.01655,0.022 -0.02755,0.0551 -0.02755,0.0827 0,0.0717 0.05512,0.1323 0.126777,0.1323 0.0441,0 0.07717,-0.022 0.09922,-0.0441 0.09922,-0.12127 0.187413,-0.18191 0.314194,-0.18191 0.148827,0 0.25907,0.0937 0.25907,0.25356 0,0.14332 -0.07717,0.24805 -0.297656,0.42995 l -0.496094,0.41892 c -0.04961,0.0441 -0.07166,0.0882 -0.07166,0.14332 z m 0,0"
       id="path53443" />
    <path
       inkscape:connector-curvature="0"
       style="fill:#000000;fill-opacity:1;stroke:none;stroke-width:0.35277775"
       d="m -5.3031209,138.10868 c 0.336244,0 0.56224,-0.21498 0.56224,-0.50712 v -0.006 c 0,-0.29765 -0.225996,-0.41892 -0.468529,-0.45199 l 0.374824,-0.39137 c 0.04961,-0.0496 0.08268,-0.0882 0.08268,-0.15433 0,-0.0717 -0.06063,-0.12127 -0.143316,-0.12127 h -0.821309 c -0.06615,0 -0.121267,0.0551 -0.121267,0.12127 0,0.0662 0.05512,0.12126 0.121267,0.12126 h 0.584287 l -0.374825,0.40239 c -0.0441,0.0441 -0.06064,0.0772 -0.06064,0.11575 0,0.0661 0.05512,0.12127 0.121269,0.12127 h 0.06064 c 0.220485,0 0.369313,0.0882 0.369313,0.24805 v 0.006 c 0,0.14331 -0.121269,0.24253 -0.28112,0.24253 -0.148828,0 -0.264583,-0.0551 -0.363802,-0.15434 -0.02204,-0.022 -0.05512,-0.0386 -0.09371,-0.0386 -0.07166,0 -0.137803,0.0661 -0.137803,0.13781 0,0.0386 0.02204,0.0772 0.04961,0.0992 0.126781,0.12677 0.308679,0.20946 0.540189,0.20946 z m 0,0"
       id="path53431" />
    <path
       inkscape:connector-curvature="0"
       style="fill:#000000;fill-opacity:1;stroke:none;stroke-width:0.35277775"
       d="m 6.4555851,137.95985 c 0,0.0772 0.06063,0.13229 0.137805,0.13229 0.07717,0 0.132292,-0.0551 0.132292,-0.13229 v -0.23702 h 0.126778 c 0.06614,0 0.115757,-0.0496 0.115757,-0.11576 0,-0.0661 -0.04961,-0.11575 -0.115757,-0.11575 h -0.126778 v -0.90399 c 0,-0.0772 -0.06063,-0.1323 -0.132292,-0.1323 -0.08268,0 -0.12678,0.0276 -0.17639,0.0882 l -0.755165,0.89848 c -0.03858,0.0441 -0.06063,0.0937 -0.06063,0.14883 0,0.0772 0.06063,0.13229 0.137803,0.13229 h 0.716579 z m -0.523653,-0.46853 0.523653,-0.63941 v 0.63941 z m 0,0"
       id="path53419" />
    <path
       inkscape:connector-curvature="0"
       style="fill:#000000;fill-opacity:1;stroke:none;stroke-width:0.35277775"
       d="m -28.550599,137.95434 c 0,0.0772 0.06615,0.1378 0.137802,0.1378 0.08268,0 0.143316,-0.0606 0.143316,-0.1378 v -1.3615 c 0,-0.0772 -0.06063,-0.13781 -0.143316,-0.13781 -0.0441,0 -0.08268,0.011 -0.137802,0.0276 l -0.242535,0.0772 c -0.06064,0.0165 -0.09922,0.0606 -0.09922,0.12127 0,0.0606 0.06063,0.11576 0.126778,0.11576 0.01101,0 0.03305,0 0.04961,-0.006 l 0.165364,-0.0496 z m 0,0"
       id="path53415" />
    <path
       inkscape:connector-curvature="0"
       id="path40625"
       d="m 34.336773,189.00245 c 0,-0.54983 -0.450617,-1.00045 -1.000453,-1.00045 H 14.054809 c -0.549838,0 -1.000455,0.45062 -1.000455,1.00045 v 12.17359 c 0,0.54846 0.450617,0.99908 1.000455,0.99908 H 33.33632 c 0.549836,0 1.000453,-0.45062 1.000453,-0.99908 z m 0,0"
       style="fill:#000000;fill-opacity:1;fill-rule:nonzero;stroke:none;stroke-width:0.35277775" />
    <path
       inkscape:connector-curvature="0"
       id="path40627"
       d="m 57.536046,173.00206 c 0,-0.54984 -0.449239,-0.99908 -0.999078,-0.99908 H 37.254082 c -0.549839,0 -1.000456,0.44924 -1.000456,0.99908 v 12.17358 c 0,0.54984 0.450617,1.00046 1.000456,1.00046 h 19.282886 c 0.549839,0 0.999078,-0.45062 0.999078,-1.00046 z m 0,0"
       style="fill:#000000;fill-opacity:1;fill-rule:nonzero;stroke:none;stroke-width:0.35277775" />
    <path
       inkscape:connector-curvature="0"
       id="path40629"
       d="m 34.336773,173.00206 c 0,-0.54984 -0.450617,-0.99908 -1.000453,-0.99908 H 14.054809 c -0.549838,0 -1.000455,0.44924 -1.000455,0.99908 v 12.17358 c 0,0.54984 0.450617,1.00046 1.000455,1.00046 H 33.33632 c 0.549836,0 1.000453,-0.45062 1.000453,-1.00046 z m 0,0"
       style="fill:#000000;fill-opacity:1;fill-rule:nonzero;stroke:none;stroke-width:0.35277775" />
    <path
       inkscape:connector-curvature="0"
       id="path40631"
       d="m 57.536046,189.00245 c 0,-0.54983 -0.449239,-1.00045 -0.999078,-1.00045 H 37.254082 c -0.549839,0 -1.000456,0.45062 -1.000456,1.00045 v 12.17359 c 0,0.54846 0.450617,0.99908 1.000456,0.99908 h 19.282886 c 0.549839,0 0.999078,-0.45062 0.999078,-0.99908 z m 0,0"
       style="fill:#000000;fill-opacity:1;fill-rule:nonzero;stroke:none;stroke-width:0.35277775" />
    <path
       inkscape:connector-curvature="0"
       style="fill:#ffffff;fill-opacity:1;stroke:none;stroke-width:0.35277775"
       d="m 17.883759,175.11817 c 0.352779,0 0.600826,-0.21497 0.600826,-0.55672 v -0.006 c 0,-0.35829 -0.248047,-0.51263 -0.562239,-0.51263 -0.09371,0 -0.148828,0.011 -0.214974,0.0276 l 0.02204,-0.27561 h 0.540191 c 0.08268,0 0.15434,-0.0717 0.15434,-0.15434 0,-0.0827 -0.07166,-0.15434 -0.15434,-0.15434 h -0.700042 c -0.08268,0 -0.148831,0.0661 -0.154339,0.14883 l -0.03306,0.5457 c -0.0055,0.0606 0.01654,0.10473 0.06615,0.14332 0.07166,0.0496 0.110244,0.0717 0.159851,0.0717 0.04961,0 0.110244,-0.0441 0.242536,-0.0441 0.170878,0 0.286631,0.0827 0.286631,0.22048 0,0.14332 -0.110242,0.226 -0.25907,0.226 -0.115755,0 -0.20946,-0.0331 -0.308679,-0.10473 -0.02755,-0.022 -0.05512,-0.0331 -0.09371,-0.0331 -0.0937,0 -0.165364,0.0772 -0.165364,0.17088 0,0.0606 0.02755,0.10473 0.06615,0.1378 0.132291,0.0882 0.286633,0.14883 0.507119,0.14883 z m 0,0"
       id="path53371" />
    <path
       inkscape:connector-curvature="0"
       style="fill:#ffffff;fill-opacity:1;stroke:none;stroke-width:0.35277775"
       d="m 29.513789,175.11817 c 0.347266,0 0.611849,-0.226 0.611849,-0.55672 v -0.006 c 0,-0.33073 -0.242533,-0.50712 -0.562239,-0.50712 -0.159854,0 -0.253559,0.0496 -0.336243,0.0992 0.02755,-0.20946 0.126783,-0.36931 0.32522,-0.36931 0.09922,0 0.165365,0.022 0.237019,0.0661 0.02755,0.011 0.05512,0.022 0.0882,0.022 0.08819,0 0.165365,-0.0717 0.165365,-0.15986 0,-0.0717 -0.03858,-0.12126 -0.0937,-0.15434 -0.09371,-0.0551 -0.226002,-0.0937 -0.385852,-0.0937 -0.479558,0 -0.705554,0.38034 -0.705554,0.87643 v 0.005 c 0,0.31419 0.07717,0.49058 0.192923,0.60634 0.110242,0.11024 0.253559,0.17087 0.463021,0.17087 z m -0.01101,-0.30316 c -0.17639,0 -0.28112,-0.10474 -0.28112,-0.23703 v -0.005 c 0,-0.1378 0.09922,-0.23151 0.275608,-0.23151 0.170876,0 0.275609,0.0992 0.275609,0.23151 v 0.005 c 0,0.13781 -0.09922,0.23703 -0.270097,0.23703 z m 0,0"
       id="path53367" />
    <path
       inkscape:connector-curvature="0"
       style="fill:#ffffff;fill-opacity:1;stroke:none;stroke-width:0.35277775"
       d="m 40.666416,174.9473 c 0,0.0992 0.0882,0.15434 0.181901,0.15434 0.07166,0 0.121266,-0.0331 0.170878,-0.11576 l 0.64492,-1.16857 c 0.02755,-0.0551 0.04961,-0.12127 0.04961,-0.17088 0,-0.10473 -0.06064,-0.15985 -0.159856,-0.15985 H 40.68295 c -0.0882,0 -0.154342,0.0661 -0.154342,0.15434 0,0.0827 0.06615,0.14883 0.154342,0.14883 h 0.611849 l -0.595312,1.0473 c -0.01654,0.0331 -0.03306,0.0772 -0.03306,0.11025 z m 0,0"
       id="path53363" />
    <path
       inkscape:connector-curvature="0"
       style="fill:#ffffff;fill-opacity:1;stroke:none;stroke-width:0.35277775"
       d="m 52.694202,175.11266 c 0.358288,0 0.617361,-0.17088 0.617361,-0.47404 0,-0.19293 -0.09371,-0.29766 -0.259073,-0.38034 0.126781,-0.0772 0.203952,-0.17639 0.203952,-0.35278 0,-0.24805 -0.220488,-0.44097 -0.56224,-0.44097 -0.341754,0 -0.562239,0.19292 -0.562239,0.44097 0,0.17639 0.07717,0.27561 0.203946,0.35278 -0.170873,0.0772 -0.25907,0.19292 -0.25907,0.38585 v 0.006 c 0,0.28112 0.264584,0.46302 0.617363,0.46302 z m 0,-0.97014 c -0.137805,0 -0.23151,-0.0882 -0.23151,-0.19843 v -0.005 c 0,-0.0992 0.08819,-0.18742 0.23151,-0.18742 0.143314,0 0.231511,0.0937 0.231511,0.19293 0,0.11575 -0.09371,0.19844 -0.231511,0.19844 z m 0,0.678 c -0.176389,0 -0.275608,-0.0882 -0.275608,-0.19844 v -0.006 c 0,-0.12127 0.115752,-0.19293 0.275608,-0.19293 0.159851,0 0.275606,0.0717 0.275606,0.19293 v 0.006 c 0,0.11576 -0.09922,0.19844 -0.275606,0.19844 z m 0,0"
       id="path53359" />
    <path
       inkscape:connector-curvature="0"
       id="path40673"
       d="m -12.06315,189.00245 c 0,-0.54983 -0.450617,-1.00045 -1.000456,-1.00045 h -19.28151 c -0.549836,0 -1.000453,0.45062 -1.000453,1.00045 v 12.17359 c 0,0.54846 0.450617,0.99908 1.000453,0.99908 h 19.28151 c 0.549839,0 1.000456,-0.45062 1.000456,-0.99908 z m 0,0"
       style="fill:#000000;fill-opacity:1;fill-rule:nonzero;stroke:none;stroke-width:0.35277775" />
    <path
       inkscape:connector-curvature="0"
       id="path40675"
       d="m 11.136125,173.00206 c 0,-0.54984 -0.450618,-0.99908 -1.000459,-0.99908 H -9.1458439 c -0.549836,0 -1.0004561,0.44924 -1.0004561,0.99908 v 12.17358 c 0,0.54984 0.4506201,1.00046 1.0004561,1.00046 H 10.135666 c 0.549841,0 1.000459,-0.45062 1.000459,-1.00046 z m 0,0"
       style="fill:#000000;fill-opacity:1;fill-rule:nonzero;stroke:none;stroke-width:0.35277775" />
    <path
       inkscape:connector-curvature="0"
       id="path40677"
       d="m -12.06315,173.00206 c 0,-0.54984 -0.450617,-0.99908 -1.000456,-0.99908 h -19.28151 c -0.549836,0 -1.000453,0.44924 -1.000453,0.99908 v 12.17358 c 0,0.54984 0.450617,1.00046 1.000453,1.00046 h 19.28151 c 0.549839,0 1.000456,-0.45062 1.000456,-1.00046 z m 0,0"
       style="fill:#000000;fill-opacity:1;fill-rule:nonzero;stroke:none;stroke-width:0.35277775" />
    <path
       inkscape:connector-curvature="0"
       id="path40679"
       d="m 11.136125,189.00245 c 0,-0.54983 -0.450618,-1.00045 -1.000459,-1.00045 H -9.1458439 c -0.549836,0 -1.0004561,0.45062 -1.0004561,1.00045 v 12.17359 c 0,0.54846 0.4506201,0.99908 1.0004561,0.99908 H 10.135666 c 0.549841,0 1.000459,-0.45062 1.000459,-0.99908 z m 0,0"
       style="fill:#000000;fill-opacity:1;fill-rule:nonzero;stroke:none;stroke-width:0.35277775" />
    <path
       inkscape:connector-curvature="0"
       style="fill:#ffffff;fill-opacity:1;stroke:none;stroke-width:0.35277775"
       d="m -28.582706,174.93076 c 0,0.0937 0.07717,0.17088 0.176389,0.17088 0.0937,0 0.170875,-0.0772 0.170875,-0.17088 v -1.29536 c 0,-0.0937 -0.07717,-0.17087 -0.170875,-0.17087 h -0.0055 c -0.04961,0 -0.09922,0.011 -0.165364,0.0275 l -0.225997,0.0662 c -0.07166,0.022 -0.121267,0.0827 -0.121267,0.15433 0,0.0827 0.07166,0.14883 0.15434,0.14883 0.02205,0 0.0441,-0.006 0.06615,-0.011 l 0.121267,-0.0275 z m 0,0"
       id="path53327" />
    <path
       inkscape:connector-curvature="0"
       style="fill:#ffffff;fill-opacity:1;stroke:none;stroke-width:0.35277775"
       d="m -17.522414,174.92525 c 0,0.10473 0.07717,0.16536 0.187413,0.16536 h 0.870921 c 0.08819,0 0.15434,-0.0661 0.15434,-0.14883 0,-0.0882 -0.06615,-0.15434 -0.15434,-0.15434 h -0.556729 l 0.259072,-0.20394 c 0.286632,-0.22049 0.424434,-0.35278 0.424434,-0.62288 v -0.006 c 0,-0.29766 -0.220486,-0.49058 -0.551215,-0.49058 -0.242535,0 -0.396875,0.0827 -0.523652,0.23151 -0.02755,0.0331 -0.0441,0.0717 -0.0441,0.11024 0,0.0937 0.07166,0.16537 0.159851,0.16537 0.05512,0 0.09922,-0.0276 0.121267,-0.0551 0.0882,-0.0937 0.159855,-0.1378 0.264583,-0.1378 0.121268,0 0.214976,0.0717 0.214976,0.20946 0,0.13229 -0.07717,0.22048 -0.281121,0.38585 l -0.451997,0.37482 c -0.06063,0.0441 -0.0937,0.10473 -0.0937,0.17639 z m 0,0"
       id="path53323" />
    <path
       inkscape:connector-curvature="0"
       style="fill:#ffffff;fill-opacity:1;stroke:none;stroke-width:0.35277775"
       d="m -5.3077059,175.11817 c 0.358291,0 0.578779,-0.22048 0.578779,-0.52365 v -0.005 c 0,-0.29766 -0.209463,-0.41341 -0.429948,-0.452 l 0.31419,-0.29765 c 0.06615,-0.0606 0.104733,-0.11025 0.104733,-0.19844 0,-0.0937 -0.07717,-0.15434 -0.17639,-0.15434 h -0.782725 c -0.08269,0 -0.154339,0.0661 -0.154339,0.14883 0,0.0827 0.07165,0.15434 0.154339,0.15434 h 0.49058 l -0.308681,0.31419 c -0.05512,0.0551 -0.07717,0.0937 -0.07717,0.14332 0,0.0827 0.06615,0.14882 0.148828,0.14882 h 0.05512 c 0.198437,0 0.31419,0.0772 0.31419,0.20395 v 0.005 c 0,0.12127 -0.0937,0.19844 -0.225997,0.19844 -0.12678,0 -0.220485,-0.0441 -0.314195,-0.12127 -0.02755,-0.022 -0.06063,-0.0441 -0.110242,-0.0441 -0.0937,0 -0.170875,0.0772 -0.170875,0.17088 0,0.0496 0.02755,0.0992 0.06063,0.12678 0.132291,0.11024 0.30317,0.1819 0.529166,0.1819 z m 0,0"
       id="path53319" />
    <path
       inkscape:connector-curvature="0"
       style="fill:#ffffff;fill-opacity:1;stroke:none;stroke-width:0.35277775"
       d="m 6.4188501,174.93627 c 0,0.0937 0.07166,0.16537 0.165364,0.16537 0.0937,0 0.170876,-0.0717 0.170876,-0.16537 v -0.19292 h 0.08268 c 0.08268,0 0.143316,-0.0606 0.143316,-0.14332 0,-0.0772 -0.06063,-0.14332 -0.143316,-0.14332 h -0.08268 v -0.82682 c 0,-0.0937 -0.07717,-0.17087 -0.170876,-0.17087 -0.104732,0 -0.154339,0.0441 -0.220485,0.12126 l -0.694531,0.81029 c -0.05512,0.0606 -0.08269,0.11576 -0.08269,0.19293 0,0.0937 0.07717,0.15985 0.170878,0.15985 h 0.661459 z m -0.429948,-0.47956 0.429948,-0.5016 v 0.5016 z m 0,0"
       id="path53315" />
    <g
       aria-label="Audio 64"
       style="color:#000000;font-style:normal;font-variant:normal;font-weight:normal;font-stretch:normal;font-size:3.52777767px;line-height:125%;font-family:Sans;-inkscape-font-specification:'Sans, Normal';font-variant-ligatures:normal;font-variant-caps:normal;font-variant-numeric:normal;font-feature-settings:normal;text-indent:0;text-align:start;text-decoration:none;text-decoration-line:none;letter-spacing:0px;word-spacing:0px;text-transform:none;writing-mode:lr-tb;direction:ltr;baseline-shift:baseline;text-anchor:start;display:inline;overflow:visible;visibility:visible;fill:#000000;fill-opacity:1;fill-rule:nonzero;stroke:none;stroke-width:0.26458332px;stroke-linecap:butt;stroke-linejoin:miter;stroke-opacity:1;marker:none;enable-background:accumulate"
       id="text4578">
      <g
         aria-label="Audio 32"
         style="color:#000000;font-style:normal;font-variant:normal;font-weight:normal;font-stretch:normal;font-size:4.23333311px;line-height:125%;font-family:Sans;-inkscape-font-specification:'Sans, Normal';font-variant-ligatures:normal;font-variant-caps:normal;font-variant-numeric:normal;font-feature-settings:normal;text-indent:0;text-align:start;text-decoration-line:none;letter-spacing:0px;word-spacing:0px;text-transform:none;writing-mode:lr-tb;direction:ltr;text-anchor:start;display:inline;overflow:visible;visibility:visible;fill:#000000;fill-opacity:1;fill-rule:nonzero;stroke:none;stroke-width:0.26458332px;stroke-linecap:butt;stroke-linejoin:miter;stroke-opacity:1;marker:none;enable-background:accumulate"
         id="text4877">
        <path
           d="m 51.821324,91.342263 h -1.244369 l -0.19637,0.56224 h -0.799951 l 1.143082,-3.086117 h 0.94878 l 1.143082,3.086117 h -0.799951 z m -1.045931,-0.572575 h 0.845426 L 51.19914,89.541857 Z"
           style="font-style:normal;font-variant:normal;font-weight:bold;font-stretch:normal;font-family:Sans;-inkscape-font-specification:'Sans Bold';stroke-width:0.26458332px"
           id="path4805" />
        <path
           d="m 53.164911,91.003266 v -1.413867 h 0.744141 v 0.23151 q 0,0.188102 -0.0021,0.473356 -0.0021,0.283187 -0.0021,0.378272 0,0.279053 0.01447,0.403076 0.01447,0.121956 0.04961,0.177767 0.04548,0.07235 0.117822,0.111621 0.07441,0.03927 0.169499,0.03927 0.231511,0 0.363802,-0.177767 0.132292,-0.177767 0.132292,-0.494027 v -1.143082 h 0.740006 v 2.315104 H 54.752411 V 91.56964 q -0.167432,0.202571 -0.355534,0.299723 -0.186035,0.09508 -0.411344,0.09508 -0.401009,0 -0.611849,-0.24598 -0.208773,-0.24598 -0.208773,-0.715202 z"
           style="font-style:normal;font-variant:normal;font-weight:bold;font-stretch:normal;font-family:Sans;-inkscape-font-specification:'Sans Bold';stroke-width:0.26458332px"
           id="path4807" />
        <path
           d="m 57.782717,89.928396 v -1.240234 h 0.74414 v 3.216341 h -0.74414 V 91.56964 q -0.152963,0.204638 -0.336931,0.299723 -0.183968,0.09508 -0.425814,0.09508 -0.42788,0 -0.702799,-0.338998 -0.274919,-0.341064 -0.274919,-0.876432 0,-0.535368 0.274919,-0.874365 0.274919,-0.341065 0.702799,-0.341065 0.239779,0 0.423747,0.09715 0.186035,0.09508 0.338998,0.297656 z m -0.487826,1.498617 q 0.237712,0 0.361735,-0.173633 0.126091,-0.173633 0.126091,-0.504362 0,-0.330729 -0.126091,-0.504362 -0.124023,-0.173633 -0.361735,-0.173633 -0.235644,0 -0.361735,0.173633 -0.124023,0.173633 -0.124023,0.504362 0,0.330729 0.124023,0.504362 0.126091,0.173633 0.361735,0.173633 z"
           style="font-style:normal;font-variant:normal;font-weight:bold;font-stretch:normal;font-family:Sans;-inkscape-font-specification:'Sans Bold';stroke-width:0.26458332px"
           id="path4809" />
        <path
           d="m 59.242059,89.589399 h 0.740006 v 2.315104 h -0.740006 z m 0,-0.901237 h 0.740006 v 0.603581 h -0.740006 z"
           style="font-style:normal;font-variant:normal;font-weight:bold;font-stretch:normal;font-family:Sans;-inkscape-font-specification:'Sans Bold';stroke-width:0.26458332px"
           id="path4811" />
        <path
           d="m 61.799009,90.062755 q -0.24598,0 -0.376204,0.177767 -0.128158,0.1757 -0.128158,0.508496 0,0.332796 0.128158,0.510563 0.130224,0.1757 0.376204,0.1757 0.241846,0 0.370003,-0.1757 0.128158,-0.177767 0.128158,-0.510563 0,-0.332796 -0.128158,-0.508496 -0.128157,-0.177767 -0.370003,-0.177767 z m 0,-0.529167 q 0.59738,0 0.932243,0.322461 0.33693,0.322461 0.33693,0.892969 0,0.570508 -0.33693,0.892969 -0.334863,0.322461 -0.932243,0.322461 -0.599446,0 -0.938444,-0.322461 -0.33693,-0.322461 -0.33693,-0.892969 0,-0.570508 0.33693,-0.892969 0.338998,-0.322461 0.938444,-0.322461 z"
           style="font-style:normal;font-variant:normal;font-weight:bold;font-stretch:normal;font-family:Sans;-inkscape-font-specification:'Sans Bold';stroke-width:0.26458332px"
           id="path4813" />
        <path
           d="m 66.695868,90.240522 q 0.312125,0.08061 0.473356,0.28112 0.163297,0.198437 0.163297,0.506429 0,0.458886 -0.351399,0.698665 -0.3514,0.237712 -1.025261,0.237712 -0.237711,0 -0.47749,-0.03928 -0.237712,-0.03721 -0.471289,-0.113688 v -0.613916 q 0.223242,0.111621 0.44235,0.169499 0.221175,0.05581 0.434082,0.05581 0.31626,0 0.483692,-0.109554 0.169498,-0.109555 0.169498,-0.314193 0,-0.21084 -0.173633,-0.318327 -0.171565,-0.109554 -0.508496,-0.109554 h -0.318326 v -0.51263 h 0.334863 q 0.299723,0 0.446484,-0.09302 0.146761,-0.09508 0.146761,-0.287321 0,-0.177767 -0.142627,-0.274918 -0.142627,-0.09715 -0.403076,-0.09715 -0.192236,0 -0.388607,0.04341 -0.19637,0.04341 -0.390673,0.128158 v -0.58291 q 0.235644,-0.06615 0.467154,-0.09922 0.231511,-0.03307 0.454753,-0.03307 0.601514,0 0.89917,0.198437 0.299723,0.196371 0.299723,0.593246 0,0.270784 -0.142627,0.444417 -0.142627,0.171566 -0.421679,0.241846 z"
           style="font-style:normal;font-variant:normal;font-weight:bold;font-stretch:normal;font-family:Sans;-inkscape-font-specification:'Sans Bold';stroke-width:0.26458332px"
           id="path4815" />
        <path
           d="m 68.886949,91.319526 h 1.358056 v 0.584977 h -2.242757 v -0.584977 l 1.126547,-0.994255 q 0.150895,-0.136426 0.223242,-0.26665 0.07235,-0.130225 0.07235,-0.270785 0,-0.217041 -0.146761,-0.349332 -0.144694,-0.132292 -0.38654,-0.132292 -0.186035,0 -0.40721,0.08061 -0.221175,0.07855 -0.473356,0.235645 v -0.677995 q 0.268717,-0.08888 0.531233,-0.134359 0.262517,-0.04754 0.514698,-0.04754 0.553971,0 0.859895,0.243913 0.307992,0.243912 0.307992,0.680062 0,0.25218 -0.130225,0.471289 -0.130224,0.217041 -0.54777,0.58291 z"
           style="font-style:normal;font-variant:normal;font-weight:bold;font-stretch:normal;font-family:Sans;-inkscape-font-specification:'Sans Bold';stroke-width:0.26458332px"
           id="path4817" />
      </g>
      <g
         style="color:#000000;font-style:normal;font-variant:normal;font-weight:normal;font-stretch:normal;font-size:16px;line-height:125%;font-family:Sans;-inkscape-font-specification:'Sans, Normal';font-variant-ligatures:normal;font-variant-caps:normal;font-variant-numeric:normal;font-feature-settings:normal;text-indent:0;text-align:start;text-decoration-line:none;letter-spacing:0px;word-spacing:0px;text-transform:none;writing-mode:lr-tb;direction:ltr;text-anchor:start;display:inline;overflow:visible;visibility:visible;fill:#000000;fill-opacity:1;fill-rule:nonzero;stroke:none;stroke-width:1px;stroke-linecap:butt;stroke-linejoin:miter;stroke-opacity:1;marker:none;enable-background:accumulate"
         id="flowRoot4879" />
    </g>
    <path
       inkscape:connector-curvature="0"
       id="path40531-8"
       d="m 134.57144,143.71423 h 11.59895"
       style="fill:none;stroke:#000000;stroke-width:0.35277775;stroke-linecap:butt;stroke-linejoin:miter;stroke-miterlimit:10;stroke-opacity:1" />
    <path
       inkscape:connector-curvature="0"
       id="path40533-4"
       d="m 111.37079,143.71423 h 11.60033"
       style="fill:none;stroke:#000000;stroke-width:0.35277775;stroke-linecap:butt;stroke-linejoin:miter;stroke-miterlimit:10;stroke-opacity:1" />
    <path
       inkscape:connector-curvature="0"
       style="fill:#000000;fill-opacity:1;stroke:none;stroke-width:0.35277775"
       d="m 110.59738,137.84217 c 0,0.0772 0.0661,0.1378 0.1378,0.1378 0.0827,0 0.14332,-0.0606 0.14332,-0.1378 v -1.3615 c 0,-0.0772 -0.0606,-0.1378 -0.14332,-0.1378 -0.0441,0 -0.0827,0.011 -0.1378,0.0276 l -0.24254,0.0772 c -0.0606,0.0165 -0.0992,0.0606 -0.0992,0.12126 0,0.0606 0.0606,0.11576 0.12678,0.11576 0.011,0 0.033,0 0.0496,-0.006 l 0.16536,-0.0496 z m 0,0"
       id="path53491-8" />
    <path
       inkscape:connector-curvature="0"
       style="fill:#000000;fill-opacity:1;stroke:none;stroke-width:0.35277775"
       d="m 111.84529,137.99651 c 0.33624,0 0.56223,-0.21497 0.56223,-0.50712 v -0.006 c 0,-0.29765 -0.22599,-0.41892 -0.46852,-0.45199 l 0.37482,-0.39136 c 0.0496,-0.0496 0.0827,-0.0882 0.0827,-0.15434 0,-0.0717 -0.0606,-0.12127 -0.14332,-0.12127 h -0.8213 c -0.0661,0 -0.12127,0.0551 -0.12127,0.12127 0,0.0661 0.0551,0.12126 0.12127,0.12126 h 0.58428 l -0.37482,0.40239 c -0.0441,0.0441 -0.0606,0.0772 -0.0606,0.11576 0,0.0661 0.0551,0.12126 0.12127,0.12126 h 0.0606 c 0.22048,0 0.36931,0.0882 0.36931,0.24805 v 0.006 c 0,0.14331 -0.12127,0.24253 -0.28112,0.24253 -0.14883,0 -0.26459,-0.0551 -0.3638,-0.15434 -0.022,-0.022 -0.0551,-0.0386 -0.0937,-0.0386 -0.0717,0 -0.1378,0.0661 -0.1378,0.13781 0,0.0386 0.022,0.0772 0.0496,0.0992 0.12678,0.12678 0.30867,0.20946 0.54018,0.20946 z m 0,0"
       id="path53495-1" />
    <path
       inkscape:connector-curvature="0"
       style="fill:#000000;fill-opacity:1;stroke:none;stroke-width:0.35277775"
       d="m 122.12228,137.84217 c 0,0.0772 0.0661,0.1378 0.13781,0.1378 0.0827,0 0.14331,-0.0606 0.14331,-0.1378 v -1.3615 c 0,-0.0772 -0.0606,-0.1378 -0.14331,-0.1378 -0.0441,0 -0.0827,0.011 -0.13781,0.0276 l -0.24254,0.0772 c -0.0606,0.0165 -0.0992,0.0606 -0.0992,0.12126 0,0.0606 0.0606,0.11576 0.12678,0.11576 0.011,0 0.0331,0 0.0496,-0.006 l 0.16537,-0.0496 z m 0,0"
       id="path53479-0" />
    <path
       inkscape:connector-curvature="0"
       style="fill:#000000;fill-opacity:1;stroke:none;stroke-width:0.35277775"
       d="m 123.60628,137.84768 c 0,0.0772 0.0606,0.13229 0.1378,0.13229 0.0772,0 0.13229,-0.0551 0.13229,-0.13229 v -0.23702 h 0.12678 c 0.0661,0 0.11575,-0.0496 0.11575,-0.11576 0,-0.0661 -0.0496,-0.11575 -0.11575,-0.11575 h -0.12678 v -0.90399 c 0,-0.0772 -0.0606,-0.13229 -0.13229,-0.13229 -0.0827,0 -0.12678,0.0276 -0.17639,0.0882 l -0.75516,0.89847 c -0.0386,0.0441 -0.0606,0.0937 -0.0606,0.14883 0,0.0772 0.0606,0.1323 0.1378,0.1323 h 0.71658 z m -0.52366,-0.46853 0.52366,-0.63941 v 0.63941 z m 0,0"
       id="path53483-3" />
    <path
       inkscape:connector-curvature="0"
       style="fill:#000000;fill-opacity:1;stroke:none;stroke-width:0.35277775"
       d="m 133.77788,137.84217 c 0,0.0772 0.0661,0.1378 0.1378,0.1378 0.0827,0 0.14332,-0.0606 0.14332,-0.1378 v -1.3615 c 0,-0.0772 -0.0606,-0.1378 -0.14332,-0.1378 -0.0441,0 -0.0827,0.011 -0.1378,0.0276 l -0.24254,0.0772 c -0.0606,0.0165 -0.0992,0.0606 -0.0992,0.12126 0,0.0606 0.0606,0.11576 0.12678,0.11576 0.011,0 0.0331,0 0.0496,-0.006 l 0.16537,-0.0496 z m 0,0"
       id="path53467-0" />
    <path
       inkscape:connector-curvature="0"
       style="fill:#000000;fill-opacity:1;stroke:none;stroke-width:0.35277775"
       d="m 135.0455,137.99651 c 0.34727,0 0.5898,-0.22048 0.5898,-0.5457 0,-0.34176 -0.24805,-0.50712 -0.56224,-0.50712 -0.10473,0 -0.17639,0.0165 -0.25356,0.0441 l 0.0276,-0.37483 h 0.60083 c 0.0661,0 0.12678,-0.0551 0.12678,-0.12126 0,-0.0717 -0.0606,-0.12678 -0.12678,-0.12678 h -0.72761 c -0.0661,0 -0.12126,0.0496 -0.12678,0.12678 l -0.0331,0.57877 c -0.005,0.0496 0.011,0.0937 0.0551,0.12127 0.0496,0.0386 0.0882,0.0551 0.13229,0.0551 0.0441,0 0.11576,-0.0551 0.27561,-0.0551 0.19293,0 0.33073,0.0992 0.33073,0.26458 v 0.006 c 0,0.17088 -0.13229,0.27561 -0.31419,0.27561 -0.12678,0 -0.23702,-0.0441 -0.34727,-0.13229 -0.022,-0.0165 -0.0496,-0.0275 -0.0827,-0.0275 -0.0717,0 -0.13229,0.0606 -0.13229,0.13229 0,0.0496 0.022,0.0827 0.0551,0.11024 0.13229,0.10473 0.29766,0.17639 0.51263,0.17639 z m 0,0"
       id="path53471-4" />
    <path
       inkscape:connector-curvature="0"
       style="fill:#000000;fill-opacity:1;stroke:none;stroke-width:0.35277775"
       d="m 145.3303,137.84217 c 0,0.0772 0.0662,0.1378 0.1378,0.1378 0.0827,0 0.14332,-0.0606 0.14332,-0.1378 v -1.3615 c 0,-0.0772 -0.0606,-0.1378 -0.14332,-0.1378 -0.0441,0 -0.0827,0.011 -0.1378,0.0276 l -0.24254,0.0772 c -0.0606,0.0165 -0.0992,0.0606 -0.0992,0.12126 0,0.0606 0.0606,0.11576 0.12678,0.11576 0.011,0 0.0331,0 0.0496,-0.006 l 0.16537,-0.0496 z m 0,0"
       id="path53451-4" />
    <path
       inkscape:connector-curvature="0"
       style="fill:#000000;fill-opacity:1;stroke:none;stroke-width:0.35277775"
       d="m 146.6824,137.99651 c 0.33624,0 0.59531,-0.226 0.59531,-0.5457 v -0.006 c 0,-0.31971 -0.24805,-0.50161 -0.55673,-0.50161 -0.19292,0 -0.30317,0.0772 -0.38585,0.15985 0.011,-0.29214 0.14883,-0.51263 0.38585,-0.51263 0.10473,0 0.18741,0.0331 0.27561,0.0937 0.022,0.011 0.0441,0.0165 0.0717,0.0165 0.0717,0 0.13229,-0.0551 0.13229,-0.12678 0,-0.0606 -0.0275,-0.0937 -0.0717,-0.12126 -0.10473,-0.0717 -0.23702,-0.11576 -0.39688,-0.11576 -0.4575,0 -0.68901,0.38034 -0.68901,0.87092 v 0.006 c 0,0.32521 0.0716,0.49058 0.19292,0.61184 0.11024,0.11025 0.24805,0.17088 0.44648,0.17088 z m -0.005,-0.24805 c -0.19844,0 -0.33073,-0.12126 -0.33073,-0.28663 0,-0.15434 0.12678,-0.28663 0.32522,-0.28663 0.19843,0 0.32521,0.12127 0.32521,0.28112 v 0.006 c 0,0.16537 -0.12127,0.28663 -0.3197,0.28663 z m 0,0"
       id="path53455-4" />
    <path
       inkscape:connector-curvature="0"
       id="path40579-4"
       d="M 88.171519,143.71423 H 99.77047"
       style="fill:none;stroke:#000000;stroke-width:0.35277775;stroke-linecap:butt;stroke-linejoin:miter;stroke-miterlimit:10;stroke-opacity:1" />
    <path
       inkscape:connector-curvature="0"
       id="path40581-7"
       d="M 64.970868,143.71423 H 76.571192"
       style="fill:none;stroke:#000000;stroke-width:0.35277775;stroke-linecap:butt;stroke-linejoin:miter;stroke-miterlimit:10;stroke-opacity:1" />
    <path
       inkscape:connector-curvature="0"
       style="fill:#000000;fill-opacity:1;stroke:none;stroke-width:0.35277775"
       d="m 64.902302,137.99651 c 0.435458,0 0.689017,-0.35829 0.689017,-0.87643 0,-0.31971 -0.07717,-0.49609 -0.192923,-0.61185 -0.115757,-0.11576 -0.242535,-0.17088 -0.446486,-0.17088 -0.352778,0 -0.595313,0.23703 -0.595313,0.55122 v 0.005 c 0,0.30868 0.226,0.51263 0.567754,0.51263 0.170875,0 0.292142,-0.0772 0.374826,-0.17088 -0.01101,0.29766 -0.15434,0.50161 -0.385851,0.50161 -0.110243,0 -0.203951,-0.0276 -0.297656,-0.0937 -0.02205,-0.0165 -0.0441,-0.0275 -0.07717,-0.0275 -0.07166,0 -0.132292,0.0551 -0.132292,0.13229 0,0.0496 0.02755,0.0882 0.06615,0.11575 0.115754,0.0772 0.253559,0.13229 0.429948,0.13229 z m 0.06063,-0.82682 c -0.198437,0 -0.325215,-0.12127 -0.325215,-0.28663 v -0.005 c 0,-0.16537 0.115753,-0.29766 0.319705,-0.29766 0.203948,0 0.330729,0.12678 0.330729,0.29766 0,0.15985 -0.121267,0.29214 -0.325219,0.29214 z m 0,0"
       id="path53447-6" />
    <path
       inkscape:connector-curvature="0"
       style="fill:#000000;fill-opacity:1;stroke:none;stroke-width:0.35277775"
       d="m 75.658584,137.84217 c 0,0.0772 0.06615,0.1378 0.137802,0.1378 0.08268,0 0.143316,-0.0606 0.143316,-0.1378 v -1.3615 c 0,-0.0772 -0.06063,-0.1378 -0.143316,-0.1378 -0.0441,0 -0.08268,0.011 -0.137802,0.0276 l -0.242534,0.0772 c -0.06064,0.0165 -0.09922,0.0606 -0.09922,0.12126 0,0.0606 0.06063,0.11576 0.126778,0.11576 0.01101,0 0.03305,0 0.04961,-0.006 l 0.165364,-0.0496 z m 0,0"
       id="path53435-3" />
    <path
       inkscape:connector-curvature="0"
       style="fill:#000000;fill-opacity:1;stroke:none;stroke-width:0.35277775"
       d="m 77.058932,137.99651 c 0.424434,0 0.700042,-0.36931 0.700042,-0.83234 0,-0.46302 -0.275608,-0.82682 -0.694532,-0.82682 -0.424434,0 -0.700041,0.36932 -0.700041,0.82682 v 0.006 c 0,0.45751 0.275607,0.82683 0.694531,0.82683 z m 0.0055,-0.25356 c -0.248045,0 -0.407899,-0.25907 -0.407899,-0.57878 0,-0.3197 0.15434,-0.57326 0.402389,-0.57326 0.248045,0 0.41341,0.25907 0.41341,0.57326 v 0.006 c 0,0.3142 -0.159851,0.57327 -0.4079,0.57327 z m 0,0"
       id="path53439-1" />
    <path
       inkscape:connector-curvature="0"
       style="fill:#000000;fill-opacity:1;stroke:none;stroke-width:0.35277775"
       d="m 87.64439,137.84217 c 0,0.0772 0.06614,0.1378 0.1378,0.1378 0.08269,0 0.143317,-0.0606 0.143317,-0.1378 v -1.3615 c 0,-0.0772 -0.06063,-0.1378 -0.143317,-0.1378 -0.0441,0 -0.08268,0.011 -0.1378,0.0276 l -0.242536,0.0772 c -0.06063,0.0165 -0.09922,0.0606 -0.09922,0.12126 0,0.0606 0.06063,0.11576 0.126778,0.11576 0.01101,0 0.03305,0 0.04961,-0.006 l 0.165365,-0.0496 z m 0,0"
       id="path53423-7" />
    <path
       inkscape:connector-curvature="0"
       style="fill:#000000;fill-opacity:1;stroke:none;stroke-width:0.35277775"
       d="m 88.602882,137.84217 c 0,0.0772 0.06615,0.1378 0.137803,0.1378 0.08268,0 0.143315,-0.0606 0.143315,-0.1378 v -1.3615 c 0,-0.0772 -0.06063,-0.1378 -0.143315,-0.1378 -0.0441,0 -0.08268,0.011 -0.137803,0.0276 l -0.242535,0.0772 c -0.06064,0.0165 -0.09922,0.0606 -0.09922,0.12126 0,0.0606 0.06063,0.11576 0.126778,0.11576 0.01101,0 0.03306,0 0.04961,-0.006 l 0.165364,-0.0496 z m 0,0"
       id="path53427-5" />
    <path
       inkscape:connector-curvature="0"
       style="fill:#000000;fill-opacity:1;stroke:none;stroke-width:0.35277775"
       d="m 98.997303,137.84217 c 0,0.0772 0.06614,0.1378 0.1378,0.1378 0.08269,0 0.143317,-0.0606 0.143317,-0.1378 v -1.3615 c 0,-0.0772 -0.06063,-0.1378 -0.143317,-0.1378 -0.0441,0 -0.08268,0.011 -0.1378,0.0276 l -0.242536,0.0772 c -0.06063,0.0165 -0.09922,0.0606 -0.09922,0.12126 0,0.0606 0.06063,0.11576 0.126778,0.11576 0.01101,0 0.03305,0 0.04961,-0.006 l 0.165367,-0.0496 z m 0,0"
       id="path53407-9" />
    <path
       inkscape:connector-curvature="0"
       style="fill:#000000;fill-opacity:1;stroke:none;stroke-width:0.35277775"
       d="m 99.64483,137.83666 c 0,0.0827 0.0661,0.13229 0.14883,0.13229 h 0.9095 c 0.0717,0 0.12678,-0.0551 0.12678,-0.12127 0,-0.0717 -0.0551,-0.12677 -0.12678,-0.12677 h -0.65043 l 0.33073,-0.27561 c 0.28663,-0.23151 0.41892,-0.36932 0.41892,-0.62288 0,-0.28663 -0.21497,-0.47955 -0.52917,-0.47955 -0.25356,0 -0.40239,0.0937 -0.53468,0.25906 -0.0165,0.022 -0.0276,0.0551 -0.0276,0.0827 0,0.0717 0.0551,0.1323 0.12678,0.1323 0.0441,0 0.0772,-0.022 0.0992,-0.0441 0.0992,-0.12127 0.18741,-0.1819 0.3142,-0.1819 0.14882,0 0.25907,0.0937 0.25907,0.25355 0,0.14332 -0.0772,0.24805 -0.29766,0.42995 l -0.49609,0.41892 c -0.0496,0.0441 -0.0717,0.0882 -0.0717,0.14332 z m 0,0"
       id="path53411-6" />
    <path
       inkscape:connector-curvature="0"
       id="path40625-2"
       d="m 127.19481,172.92069 c 0,-0.54983 -0.45062,-1.00045 -1.00045,-1.00045 h -19.28151 c -0.54984,0 -1.00046,0.45062 -1.00046,1.00045 v 12.17359 c 0,0.54846 0.45062,0.99908 1.00046,0.99908 h 19.28151 c 0.54983,0 1.00045,-0.45062 1.00045,-0.99908 z m 0,0"
       style="fill:#000000;fill-opacity:1;fill-rule:nonzero;stroke:none;stroke-width:0.35277775" />
    <path
       inkscape:connector-curvature="0"
       id="path40631-1"
       d="m 150.39408,172.92069 c 0,-0.54983 -0.44924,-1.00045 -0.99907,-1.00045 h -19.28289 c -0.54984,0 -1.00046,0.45062 -1.00046,1.00045 v 12.17359 c 0,0.54846 0.45062,0.99908 1.00046,0.99908 h 19.28289 c 0.54983,0 0.99907,-0.45062 0.99907,-0.99908 z m 0,0"
       style="fill:#000000;fill-opacity:1;fill-rule:nonzero;stroke:none;stroke-width:0.35277775" />
    <path
       inkscape:connector-curvature="0"
       style="fill:#ffffff;fill-opacity:1;stroke:none;stroke-width:0.35277775"
       d="m 109.94333,174.84764 c 0,0.0937 0.0772,0.17088 0.17639,0.17088 0.0937,0 0.17088,-0.0772 0.17088,-0.17088 v -1.29535 c 0,-0.0937 -0.0772,-0.17088 -0.17088,-0.17088 h -0.005 c -0.0496,0 -0.0992,0.011 -0.16536,0.0276 l -0.226,0.0661 c -0.0716,0.022 -0.12127,0.0827 -0.12127,0.15434 0,0.0827 0.0717,0.14883 0.15434,0.14883 0.022,0 0.0441,-0.006 0.0661,-0.011 l 0.12127,-0.0276 z m 0,0"
       id="path53399-7" />
    <path
       inkscape:connector-curvature="0"
       style="fill:#ffffff;fill-opacity:1;stroke:none;stroke-width:0.35277775"
       d="m 111.26003,175.03506 c 0.35829,0 0.57878,-0.22049 0.57878,-0.52365 v -0.006 c 0,-0.29765 -0.20947,-0.41341 -0.42995,-0.452 l 0.31419,-0.29765 c 0.0662,-0.0606 0.10473,-0.11024 0.10473,-0.19844 0,-0.0937 -0.0772,-0.15434 -0.17639,-0.15434 h -0.78272 c -0.0827,0 -0.15434,0.0661 -0.15434,0.14883 0,0.0827 0.0717,0.15434 0.15434,0.15434 h 0.49058 l -0.30868,0.31419 c -0.0551,0.0551 -0.0772,0.0937 -0.0772,0.14332 0,0.0827 0.0662,0.14883 0.14882,0.14883 h 0.0551 c 0.19844,0 0.31419,0.0772 0.31419,0.20394 v 0.006 c 0,0.12127 -0.0937,0.19844 -0.22599,0.19844 -0.12678,0 -0.22049,-0.0441 -0.3142,-0.12127 -0.0276,-0.022 -0.0606,-0.0441 -0.11024,-0.0441 -0.0937,0 -0.17088,0.0772 -0.17088,0.17088 0,0.0496 0.0276,0.0992 0.0606,0.12678 0.1323,0.11024 0.30317,0.1819 0.52917,0.1819 z m 0,0"
       id="path53403-8" />
    <path
       inkscape:connector-curvature="0"
       style="fill:#ffffff;fill-opacity:1;stroke:none;stroke-width:0.35277775"
       d="m 121.47053,174.84764 c 0,0.0937 0.0772,0.17088 0.17639,0.17088 0.0937,0 0.17087,-0.0772 0.17087,-0.17088 v -1.29535 c 0,-0.0937 -0.0772,-0.17088 -0.17087,-0.17088 h -0.005 c -0.0496,0 -0.0992,0.011 -0.16537,0.0276 l -0.226,0.0661 c -0.0717,0.022 -0.12126,0.0827 -0.12126,0.15434 0,0.0827 0.0717,0.14883 0.15434,0.14883 0.022,0 0.0441,-0.006 0.0662,-0.011 l 0.12127,-0.0276 z m 0,0"
       id="path53391-5" />
    <path
       inkscape:connector-curvature="0"
       style="fill:#ffffff;fill-opacity:1;stroke:none;stroke-width:0.35277775"
       d="m 122.9797,174.85316 c 0,0.0937 0.0717,0.16536 0.16537,0.16536 0.0937,0 0.17088,-0.0717 0.17088,-0.16536 v -0.19293 h 0.0827 c 0.0827,0 0.14331,-0.0606 0.14331,-0.14332 0,-0.0772 -0.0606,-0.14331 -0.14331,-0.14331 h -0.0827 v -0.82682 c 0,-0.0937 -0.0772,-0.17088 -0.17088,-0.17088 -0.10473,0 -0.15434,0.0441 -0.22049,0.12127 l -0.69453,0.81028 c -0.0551,0.0606 -0.0827,0.11576 -0.0827,0.19293 0,0.0937 0.0772,0.15985 0.17088,0.15985 h 0.66146 z m -0.42994,-0.47956 0.42994,-0.50161 v 0.50161 z m 0,0"
       id="path53395-7" />
    <path
       inkscape:connector-curvature="0"
       style="fill:#ffffff;fill-opacity:1;stroke:none;stroke-width:0.35277775"
       d="m 133.12383,174.84764 c 0,0.0937 0.0772,0.17088 0.17639,0.17088 0.0937,0 0.17088,-0.0772 0.17088,-0.17088 v -1.29535 c 0,-0.0937 -0.0772,-0.17088 -0.17088,-0.17088 h -0.005 c -0.0496,0 -0.0992,0.011 -0.16536,0.0276 l -0.226,0.0661 c -0.0717,0.022 -0.12127,0.0827 -0.12127,0.15434 0,0.0827 0.0717,0.14883 0.15434,0.14883 0.022,0 0.0441,-0.006 0.0661,-0.011 l 0.12127,-0.0276 z m 0,0"
       id="path53383-4" />
    <path
       inkscape:connector-curvature="0"
       style="fill:#ffffff;fill-opacity:1;stroke:none;stroke-width:0.35277775"
       d="m 134.45659,175.03506 c 0.35277,0 0.60082,-0.21498 0.60082,-0.55673 v -0.005 c 0,-0.35829 -0.24805,-0.51263 -0.56224,-0.51263 -0.0937,0 -0.14883,0.011 -0.21497,0.0276 l 0.022,-0.27561 h 0.54019 c 0.0827,0 0.15434,-0.0717 0.15434,-0.15434 0,-0.0827 -0.0717,-0.15434 -0.15434,-0.15434 h -0.70004 c -0.0827,0 -0.14883,0.0661 -0.15434,0.14883 l -0.0331,0.5457 c -0.006,0.0606 0.0165,0.10474 0.0661,0.14332 0.0717,0.0496 0.11024,0.0717 0.15985,0.0717 0.0496,0 0.11024,-0.0441 0.24253,-0.0441 0.17088,0 0.28663,0.0827 0.28663,0.22049 0,0.14331 -0.11024,0.226 -0.25906,0.226 -0.11576,0 -0.20947,-0.0331 -0.30869,-0.10473 -0.0276,-0.022 -0.0551,-0.0331 -0.0937,-0.0331 -0.0937,0 -0.16536,0.0772 -0.16536,0.17088 0,0.0606 0.0275,0.10473 0.0661,0.1378 0.13229,0.0882 0.28663,0.14883 0.50711,0.14883 z m 0,0"
       id="path53387-1" />
    <path
       inkscape:connector-curvature="0"
       style="fill:#ffffff;fill-opacity:1;stroke:none;stroke-width:0.35277775"
       d="m 144.67854,174.84764 c 0,0.0937 0.0772,0.17088 0.17639,0.17088 0.0937,0 0.17088,-0.0772 0.17088,-0.17088 v -1.29535 c 0,-0.0937 -0.0772,-0.17088 -0.17088,-0.17088 h -0.005 c -0.0496,0 -0.0992,0.011 -0.16536,0.0276 l -0.226,0.0661 c -0.0717,0.022 -0.12126,0.0827 -0.12126,0.15434 0,0.0827 0.0717,0.14883 0.15434,0.14883 0.022,0 0.0441,-0.006 0.0661,-0.011 l 0.12126,-0.0276 z m 0,0"
       id="path53375-8" />
    <path
       inkscape:connector-curvature="0"
       style="fill:#ffffff;fill-opacity:1;stroke:none;stroke-width:0.35277775"
       d="m 146.09348,175.03506 c 0.34727,0 0.61185,-0.226 0.61185,-0.55673 v -0.005 c 0,-0.33073 -0.24253,-0.50712 -0.56224,-0.50712 -0.15985,0 -0.25356,0.0496 -0.33624,0.0992 0.0276,-0.20946 0.12678,-0.36931 0.32522,-0.36931 0.0992,0 0.16536,0.022 0.23702,0.0661 0.0275,0.011 0.0551,0.022 0.0882,0.022 0.0882,0 0.16536,-0.0717 0.16536,-0.15985 0,-0.0717 -0.0386,-0.12127 -0.0937,-0.15434 -0.0937,-0.0551 -0.226,-0.0937 -0.38585,-0.0937 -0.47956,0 -0.70555,0.38034 -0.70555,0.87643 v 0.006 c 0,0.3142 0.0772,0.49058 0.19292,0.60634 0.11024,0.11025 0.25356,0.17088 0.46302,0.17088 z m -0.011,-0.30317 c -0.17639,0 -0.28112,-0.10473 -0.28112,-0.23702 v -0.006 c 0,-0.1378 0.0992,-0.23151 0.27561,-0.23151 0.17088,0 0.27561,0.0992 0.27561,0.23151 v 0.006 c 0,0.1378 -0.0992,0.23702 -0.2701,0.23702 z m 0,0"
       id="path53379-5" />
    <path
       inkscape:connector-curvature="0"
       id="path40673-9"
       d="m 80.794886,172.92069 c 0,-0.54983 -0.450617,-1.00045 -1.000456,-1.00045 H 60.51292 c -0.549836,0 -1.000453,0.45062 -1.000453,1.00045 v 12.17359 c 0,0.54846 0.450617,0.99908 1.000453,0.99908 h 19.28151 c 0.549839,0 1.000456,-0.45062 1.000456,-0.99908 z m 0,0"
       style="fill:#000000;fill-opacity:1;fill-rule:nonzero;stroke:none;stroke-width:0.35277775" />
    <path
       inkscape:connector-curvature="0"
       id="path40679-7"
       d="m 103.99416,172.92069 c 0,-0.54983 -0.45062,-1.00045 -1.00046,-1.00045 H 83.712192 c -0.549836,0 -1.000456,0.45062 -1.000456,1.00045 v 12.17359 c 0,0.54846 0.45062,0.99908 1.000456,0.99908 H 102.9937 c 0.54984,0 1.00046,-0.45062 1.00046,-0.99908 z m 0,0"
       style="fill:#000000;fill-opacity:1;fill-rule:nonzero;stroke:none;stroke-width:0.35277775" />
    <path
       inkscape:connector-curvature="0"
       style="fill:#ffffff;fill-opacity:1;stroke:none;stroke-width:0.35277775"
       d="m 64.289092,175.03506 c 0.451997,0 0.700042,-0.35278 0.700042,-0.87643 v -0.006 c 0,-0.31419 -0.07717,-0.49058 -0.192924,-0.60633 -0.121267,-0.12127 -0.248049,-0.17088 -0.463021,-0.17088 -0.358291,0 -0.61185,0.23702 -0.61185,0.56224 v 0.005 c 0,0.32522 0.226,0.51815 0.573264,0.51815 0.143316,0 0.248048,-0.0441 0.325218,-0.11025 -0.02205,0.21498 -0.126781,0.36381 -0.325218,0.36381 -0.09922,0 -0.170876,-0.022 -0.253559,-0.0717 -0.02755,-0.0165 -0.06063,-0.0276 -0.0937,-0.0276 -0.09371,0 -0.165365,0.0661 -0.165365,0.15985 0,0.0661 0.03306,0.11575 0.08268,0.14332 0.115757,0.0772 0.242535,0.11575 0.424437,0.11575 z m 0.06615,-0.87092 c -0.176389,0 -0.281121,-0.0992 -0.281121,-0.23702 v -0.006 c 0,-0.14331 0.09922,-0.24253 0.270097,-0.24253 0.176389,0 0.286632,0.0992 0.286632,0.24253 v 0.006 c 0,0.1378 -0.104733,0.23702 -0.275608,0.23702 z m 0,0"
       id="path53355-5" />
    <path
       inkscape:connector-curvature="0"
       style="fill:#ffffff;fill-opacity:1;stroke:none;stroke-width:0.35277775"
       d="m 75.004544,174.84764 c 0,0.0937 0.07717,0.17088 0.176389,0.17088 0.0937,0 0.170875,-0.0772 0.170875,-0.17088 v -1.29535 c 0,-0.0937 -0.07717,-0.17088 -0.170875,-0.17088 h -0.0055 c -0.04961,0 -0.09922,0.011 -0.165365,0.0276 l -0.225996,0.0661 c -0.07166,0.022 -0.121268,0.0827 -0.121268,0.15434 0,0.0827 0.07166,0.14883 0.15434,0.14883 0.02205,0 0.0441,-0.006 0.06615,-0.011 l 0.121268,-0.0276 z m 0,0"
       id="path53347-3" />
    <path
       inkscape:connector-curvature="0"
       style="fill:#ffffff;fill-opacity:1;stroke:none;stroke-width:0.35277775"
       d="m 76.467728,175.03506 c 0.429948,0 0.71658,-0.3638 0.71658,-0.83234 0,-0.46853 -0.286632,-0.82682 -0.711066,-0.82682 -0.424437,0 -0.716579,0.3638 -0.716579,0.82682 v 0.006 c 0,0.46853 0.286632,0.82682 0.711065,0.82682 z m 0.0055,-0.31971 c -0.209462,0 -0.352778,-0.21497 -0.352778,-0.51263 0,-0.29765 0.137802,-0.50711 0.347264,-0.50711 0.214976,0 0.352778,0.22048 0.352778,0.50711 v 0.006 c 0,0.29214 -0.132292,0.50712 -0.347264,0.50712 z m 0,0"
       id="path53351-8" />
    <path
       inkscape:connector-curvature="0"
       style="fill:#ffffff;fill-opacity:1;stroke:none;stroke-width:0.35277775"
       d="m 86.971997,174.84764 c 0,0.0937 0.07717,0.17088 0.17639,0.17088 0.0937,0 0.170875,-0.0772 0.170875,-0.17088 v -1.29535 c 0,-0.0937 -0.07717,-0.17088 -0.170875,-0.17088 h -0.0055 c -0.04961,0 -0.09922,0.011 -0.165365,0.0276 l -0.225997,0.0661 c -0.07166,0.022 -0.121266,0.0827 -0.121266,0.15434 0,0.0827 0.07165,0.14883 0.154339,0.14883 0.02204,0 0.0441,-0.006 0.06615,-0.011 l 0.121267,-0.0276 z m 0,0"
       id="path53343-8" />
    <path
       inkscape:connector-curvature="0"
       style="fill:#ffffff;fill-opacity:1;stroke:none;stroke-width:0.35277775"
       d="m 87.979562,174.84764 c 0,0.0937 0.07717,0.17088 0.17639,0.17088 0.0937,0 0.170875,-0.0772 0.170875,-0.17088 v -1.29535 c 0,-0.0937 -0.07717,-0.17088 -0.170875,-0.17088 h -0.0055 c -0.04961,0 -0.09922,0.011 -0.165365,0.0276 l -0.225997,0.0661 c -0.07166,0.022 -0.121266,0.0827 -0.121266,0.15434 0,0.0827 0.07165,0.14883 0.154339,0.14883 0.02204,0 0.0441,-0.006 0.06615,-0.011 l 0.12127,-0.0276 z m 0,0"
       id="path53339-3" />
    <path
       inkscape:connector-curvature="0"
       style="fill:#ffffff;fill-opacity:1;stroke:none;stroke-width:0.35277775"
       d="m 98.336377,174.84764 c 0,0.0937 0.07717,0.17088 0.17639,0.17088 0.09371,0 0.170879,-0.0772 0.170879,-0.17088 v -1.29535 c 0,-0.0937 -0.07717,-0.17088 -0.170879,-0.17088 h -0.0055 c -0.04961,0 -0.09922,0.011 -0.165364,0.0276 l -0.226002,0.0661 c -0.07165,0.022 -0.121267,0.0827 -0.121267,0.15434 0,0.0827 0.07166,0.14883 0.15434,0.14883 0.02204,0 0.0441,-0.006 0.06615,-0.011 l 0.121269,-0.0276 z m 0,0"
       id="path53331-1" />
    <path
       inkscape:connector-curvature="0"
       style="fill:#ffffff;fill-opacity:1;stroke:none;stroke-width:0.35277775"
       d="m 99.045821,174.84213 c 0,0.10473 0.07717,0.16537 0.187412,0.16537 h 0.870917 c 0.0882,0 0.15434,-0.0662 0.15434,-0.14883 0,-0.0882 -0.0662,-0.15434 -0.15434,-0.15434 h -0.556724 l 0.259074,-0.20395 c 0.28663,-0.22048 0.42443,-0.35278 0.42443,-0.62287 v -0.006 c 0,-0.29765 -0.22048,-0.49058 -0.551213,-0.49058 -0.242535,0 -0.396875,0.0827 -0.523652,0.23151 -0.02755,0.0331 -0.0441,0.0717 -0.0441,0.11024 0,0.0937 0.07166,0.16537 0.15985,0.16537 0.05512,0 0.09922,-0.0276 0.121267,-0.0551 0.0882,-0.0937 0.159856,-0.13781 0.264583,-0.13781 0.121265,0 0.214975,0.0717 0.214975,0.20947 0,0.13229 -0.0772,0.22048 -0.281121,0.38585 l -0.451995,0.37482 c -0.06063,0.0441 -0.0937,0.10473 -0.0937,0.17639 z m 0,0"
       id="path53335-8" />
    <path
       inkscape:connector-curvature="0"
       id="path40625-9"
       d="m 127.25061,188.66571 c 0,-0.54983 -0.45062,-1.00045 -1.00046,-1.00045 h -19.28151 c -0.54983,0 -1.00045,0.45062 -1.00045,1.00045 v 12.17359 c 0,0.54846 0.45062,0.99908 1.00045,0.99908 h 19.28151 c 0.54984,0 1.00046,-0.45062 1.00046,-0.99908 z m 0,0"
       style="fill:#000000;fill-opacity:1;fill-rule:nonzero;stroke:none;stroke-width:0.35277775" />
    <path
       inkscape:connector-curvature="0"
       id="path40631-6"
       d="m 150.44988,188.66571 c 0,-0.54983 -0.44924,-1.00045 -0.99908,-1.00045 h -19.28288 c -0.54984,0 -1.00046,0.45062 -1.00046,1.00045 v 12.17359 c 0,0.54846 0.45062,0.99908 1.00046,0.99908 h 19.28288 c 0.54984,0 0.99908,-0.45062 0.99908,-0.99908 z m 0,0"
       style="fill:#000000;fill-opacity:1;fill-rule:nonzero;stroke:none;stroke-width:0.35277775" />
    <path
       inkscape:connector-curvature="0"
       id="path40673-8"
       d="m 80.850683,188.66571 c 0,-0.54983 -0.450617,-1.00045 -1.000456,-1.00045 h -19.28151 c -0.549836,0 -1.000453,0.45062 -1.000453,1.00045 v 12.17359 c 0,0.54846 0.450617,0.99908 1.000453,0.99908 h 19.28151 c 0.549839,0 1.000456,-0.45062 1.000456,-0.99908 z m 0,0"
       style="fill:#000000;fill-opacity:1;fill-rule:nonzero;stroke:none;stroke-width:0.35277775" />
    <path
       inkscape:connector-curvature="0"
       id="path40679-8"
       d="m 104.04996,188.66571 c 0,-0.54983 -0.45062,-1.00045 -1.00046,-1.00045 H 83.767989 c -0.549836,0 -1.000456,0.45062 -1.000456,1.00045 v 12.17359 c 0,0.54846 0.45062,0.99908 1.000456,0.99908 H 103.0495 c 0.54984,0 1.00046,-0.45062 1.00046,-0.99908 z m 0,0"
       style="fill:#000000;fill-opacity:1;fill-rule:nonzero;stroke:none;stroke-width:0.35277775" />
    <path
       inkscape:connector-curvature="0"
       id="path40531-0"
       d="m 133.76336,159.04281 h 11.59895"
       style="fill:none;stroke:#000000;stroke-width:0.35277775;stroke-linecap:butt;stroke-linejoin:miter;stroke-miterlimit:10;stroke-opacity:1" />
    <path
       inkscape:connector-curvature="0"
       id="path40533-3"
       d="m 110.56271,159.04281 h 11.60033"
       style="fill:none;stroke:#000000;stroke-width:0.35277775;stroke-linecap:butt;stroke-linejoin:miter;stroke-miterlimit:10;stroke-opacity:1" />
    <path
       inkscape:connector-curvature="0"
       id="path40579-46"
       d="M 87.363438,159.04281 H 98.962387"
       style="fill:none;stroke:#000000;stroke-width:0.35277775;stroke-linecap:butt;stroke-linejoin:miter;stroke-miterlimit:10;stroke-opacity:1" />
    <path
       inkscape:connector-curvature="0"
       id="path40581-9"
       d="M 64.162787,159.04281 H 75.763111"
       style="fill:none;stroke:#000000;stroke-width:0.35277775;stroke-linecap:butt;stroke-linejoin:miter;stroke-miterlimit:10;stroke-opacity:1" />
  </g>
</svg>
